<svg xmlns="http://www.w3.org/2000/svg" viewBox="0 0 65.77 68.25"><defs><style>.cls-1{fill:#efefef;}.cls-2{fill:#f79;}.cls-3{fill:#4d4d4d;}.cls-4{fill:#fff;}.cls-5{fill:#ccc;}.cls-6{fill:#aaa;}.cls-7{fill:#e0e0e0;}.cls-8{fill:#ef608f;}</style></defs><title>Delivery Van</title><g id="Layer_2" data-name="Layer 2"><g id="Layer_1-2" data-name="Layer 1"><path class="cls-1" d="M52,55.16A43.93,43.93,0,0,1,32.81,66.34c-7.77,2.3-17,3.14-22.55-1S2.91,52.05,2.06,43.86,1.34,28.39,4.6,23.37,14.29,15.58,21,11,34.69,0,41.58,0,55.22,6.29,59,13.57A35,35,0,0,1,62.1,36.35,37.35,37.35,0,0,1,52,55.16Z"/><path class="cls-2" d="M45.57,54.38a.25.25,0,0,1-.25-.25V27.47a.25.25,0,0,1,.25-.25h11.6A4.92,4.92,0,0,1,61.59,30l3.43,7a4.84,4.84,0,0,1,.5,2.17V51.72a2.68,2.68,0,0,1-2.67,2.66Z"/><path class="cls-3" d="M57.17,27.47a4.71,4.71,0,0,1,4.2,2.62L64.8,37a4.6,4.6,0,0,1,.47,2.06V51.72a2.42,2.42,0,0,1-2.42,2.41H45.57V27.47h11.6m0-.5H45.57a.5.5,0,0,0-.5.5V54.13a.5.5,0,0,0,.5.5H62.85a2.93,2.93,0,0,0,2.92-2.9V39.09a5.13,5.13,0,0,0-.53-2.29l-3.42-6.94A5.18,5.18,0,0,0,57.17,27Z"/><path class="cls-4" d="M50.37,42.17A1.34,1.34,0,0,1,49,40.84V32.25a1.32,1.32,0,0,1,1.33-1.33h6.81a1.19,1.19,0,0,1,1.09.68l3.28,6.66a2.58,2.58,0,0,1,.27,1.14v1.66a1.11,1.11,0,0,1-1.11,1.11Z"/><path class="cls-3" d="M57.17,31.17a.92.92,0,0,1,.86.54l3.29,6.66a2.47,2.47,0,0,1,.24,1v1.66a.85.85,0,0,1-.86.86H50.37a1.09,1.09,0,0,1-1.09-1.08V32.25a1.08,1.08,0,0,1,1.08-1.08h6.81m0-.5H50.36a1.58,1.58,0,0,0-1.58,1.58v8.59a1.59,1.59,0,0,0,1.59,1.58H60.7a1.36,1.36,0,0,0,1.36-1.36V39.4a2.93,2.93,0,0,0-.29-1.25l-3.29-6.66a1.45,1.45,0,0,0-1.31-.82Z"/><path class="cls-5" d="M2.33,54.37A2.08,2.08,0,0,1,.25,52.29V47.58a.25.25,0,0,1,.25-.25H45.57a.25.25,0,0,1,.25.25v6.54a.25.25,0,0,1-.25.25Z"/><path class="cls-3" d="M45.57,47.58v6.54H2.33A1.82,1.82,0,0,1,.5,52.29V47.58H45.57m0-.5H.5a.5.5,0,0,0-.5.5v4.71a2.33,2.33,0,0,0,2.33,2.33H45.57a.5.5,0,0,0,.5-.5V47.58a.5.5,0,0,0-.5-.5Z"/><circle class="cls-4" cx="54.45" cy="54.13" r="6.79"/><path class="cls-3" d="M54.45,47.59a6.55,6.55,0,1,1-6.54,6.54,6.54,6.54,0,0,1,6.54-6.54m0-.5a7,7,0,1,0,7,7,7.05,7.05,0,0,0-7-7Z"/><path class="cls-5" d="M54.45,57.07a2.94,2.94,0,1,1,2.95-2.94A2.94,2.94,0,0,1,54.45,57.07Z"/><path class="cls-3" d="M54.45,51.44a2.69,2.69,0,1,1-2.69,2.69,2.7,2.7,0,0,1,2.69-2.69m0-.5a3.19,3.19,0,1,0,3.2,3.19,3.19,3.19,0,0,0-3.2-3.19Z"/><path class="cls-6" d="M2.5,52.29V47.58H.5v4.71a1.82,1.82,0,0,0,1.83,1.83h2A1.82,1.82,0,0,1,2.5,52.29Z"/><path class="cls-4" d="M.5,47.83a.25.25,0,0,1-.25-.25v-34a3.13,3.13,0,0,1,3.12-3.13H42.71a3.13,3.13,0,0,1,3.12,3.13v34a.25.25,0,0,1-.25.25Z"/><path class="cls-3" d="M42.71,10.68a2.87,2.87,0,0,1,2.87,2.87v34H.5v-34a2.87,2.87,0,0,1,2.87-2.87H42.71m0-.5H3.37A3.37,3.37,0,0,0,0,13.55v34a.5.5,0,0,0,.5.5H45.57a.52.52,0,0,0,.51-.5v-34a3.37,3.37,0,0,0-3.37-3.37Z"/><path class="cls-2" d="M27.35,27.09a1.11,1.11,0,0,1-.5-.12l-4.49-2.33a.54.54,0,0,0-.27-.07.5.5,0,0,0-.27.07L17.32,27a1.08,1.08,0,0,1-.5.12,1.11,1.11,0,0,1-.75-.3,1.08,1.08,0,0,1-.34-.79V10.67a.25.25,0,0,1,.25-.25H28.19a.25.25,0,0,1,.25.25V26A1.09,1.09,0,0,1,27.35,27.09Z"/><path class="cls-3" d="M28.19,10.68V26a.84.84,0,0,1-.84.84.85.85,0,0,1-.38-.09l-4.5-2.33a.75.75,0,0,0-.38-.1.76.76,0,0,0-.39.1l-4.49,2.33a.92.92,0,0,1-.39.09A.84.84,0,0,1,16,26V10.68H28.19m0-.5H16a.5.5,0,0,0-.5.5V26a1.34,1.34,0,0,0,1.34,1.34,1.28,1.28,0,0,0,.61-.15l4.5-2.33a.29.29,0,0,1,.16,0,.28.28,0,0,1,.15,0l4.5,2.33a1.31,1.31,0,0,0,.61.15A1.34,1.34,0,0,0,28.69,26V10.68a.5.5,0,0,0-.5-.5Z"/><path class="cls-3" d="M13.93,38.33H3.73a.59.59,0,0,0-.59.59.58.58,0,0,0,.59.59h10.2a.59.59,0,1,0,0-1.18Z"/><path class="cls-3" d="M13.93,42H3.73a.6.6,0,0,0,0,1.19h10.2a.6.6,0,1,0,0-1.19Z"/><path class="cls-7" d="M5.37,10.68h-2A2.87,2.87,0,0,0,.5,13.55v34h2v-34A2.87,2.87,0,0,1,5.37,10.68Z"/><circle class="cls-4" cx="10.28" cy="54.13" r="6.79"/><path class="cls-3" d="M10.28,47.59a6.55,6.55,0,1,1-6.55,6.54,6.54,6.54,0,0,1,6.55-6.54m0-.5a7,7,0,1,0,7,7,7.05,7.05,0,0,0-7-7Z"/><path class="cls-5" d="M10.28,57.07a2.94,2.94,0,1,1,2.94-2.94A2.95,2.95,0,0,1,10.28,57.07Z"/><path class="cls-3" d="M10.28,51.44a2.69,2.69,0,1,1-2.7,2.69,2.7,2.7,0,0,1,2.7-2.69m0-.5a3.19,3.19,0,1,0,3.19,3.19,3.2,3.2,0,0,0-3.19-3.19Z"/><path class="cls-8" d="M18,26V10.68H16V26a.85.85,0,0,0,1.23.75l.84-.44A.74.74,0,0,1,18,26Z"/><path class="cls-7" d="M51.28,40.84V32.25a1.08,1.08,0,0,1,1.08-1.08h-2a1.08,1.08,0,0,0-1.08,1.08v8.59a1.09,1.09,0,0,0,1.09,1.08h2A1.09,1.09,0,0,1,51.28,40.84Z"/></g></g></svg>